<svg height="512pt" viewBox="0 0 512.00342 512" width="512pt" xmlns="http://www.w3.org/2000/svg"><path d="m238.859375 281.148438c-.109375-2.066407-.878906-4.082032-2.398437-5.609376-2.441407-2.4375-6.109376-3.191406-9.292969-1.851562l-193.832031 80.203125c-.007813 0-.007813.011719-.015626.011719l-28.007812 11.585937c-2.089844.871094-3.753906 2.527344-4.625 4.617188-.867188 2.089843-.867188 4.445312 0 6.535156 25.074219 60.527344 74.15625 109.609375 134.679688 134.671875 1.050781.433594 2.152343.648438 3.261718.648438s2.226563-.214844 3.269532-.648438c2.089843-.871094 3.753906-2.527344 4.625-4.617188l91.796874-221.863281c.488282-1.183593.597657-2.449219.539063-3.683593zm-172.90625 93.632812c-4.21875-2.109375-5.925781-7.234375-3.816406-11.453125 2.109375-4.214844 7.238281-5.894531 11.453125-3.8125l19.394531 9.695313c2.816406-3.515626 6.253906-6.546876 10.34375-8.671876 10.023437-5.214843 20.964844-5.894531 30.777344-1.917968 9.820312 3.976562 17.203125 12.074218 20.777343 22.808594l9.140626 27.433593-25.660157 13.328125c-5.726562 2.976563-11.742187 4.464844-17.679687 4.464844-4.472656 0-8.890625-.855469-13.117188-2.5625-9.8125-3.976562-17.183594-12.074219-20.761718-22.800781-1.796876-5.410157-1.996094-11.109375-.972657-16.570313zm119.308594-35.976562-17.066407 17.066406c-1.664062 1.664062-3.847656 2.5-6.03125 2.5-2.183593 0-4.371093-.835938-6.035156-2.5-3.335937-3.335938-3.335937-8.730469 0-12.066406l17.066406-17.066407c3.328126-3.335937 8.738282-3.335937 12.066407 0 3.328125 3.335938 3.328125 8.730469 0 12.066407zm-51.199219 153.332031c-50.164062-23.03125-91.160156-64.015625-114.191406-114.199219l13.074218-5.410156c24.855469 44.195312 62.691407 80.410156 107.882813 103.277344zm0 0"/><path d="m436.8125 74.738281c-56.019531-55.894531-133.570312-82.390625-212.792969-72.816406-115.09375 13.96875-206.246093 104.097656-221.65625 219.183594-5.496093 41.039062-1.390625 81.390625 12.199219 119.953125.777344 2.21875 2.441406 4.019531 4.585938 4.964844 2.148437.957031 4.589843.984374 6.757812.078124l225.539062-94.359374c3.925782-1.671876 6.726563.707031 7.484376 1.457031.5625.566406 1.988281 2.246093 2.046874 4.667969 0 .8125-.152343 1.699218-.546874 2.664062l-80.414063 194.335938c-.265625.648437-12.628906 31.777343-12.628906 31.777343-.898438 2.175781-.855469 4.613281.109375 6.757813.964844 2.140625 2.773437 3.789062 4.992187 4.554687 27.074219 9.351563 54.980469 14.046875 83.34375 14.046875 11.964844-.007812 24.011719-.84375 36.113281-2.515625 114.8125-15.882812 204.546876-107.238281 218.203126-222.164062 9.417968-79.222657-17.308594-156.703125-73.335938-212.585938zm-342.488281 139.703125c-.222657-11.304687 4.019531-21.410156 11.9375-28.441406 7.917969-7.039062 18.449219-10.050781 29.660156-8.496094l28.640625 3.964844.5625 28.914062c.222656 11.304688-4.019531 21.40625-11.9375 28.4375-6.5625 5.828126-14.917969 8.902344-23.953125 8.902344-1.878906 0-3.78125-.136718-5.699219-.402344-5.640625-.785156-10.839844-3.132812-15.285156-6.476562l-17.730469 13.414062c-1.546875 1.167969-3.355469 1.722657-5.148437 1.722657-2.582032 0-5.136719-1.167969-6.816406-3.378907-2.839844-3.753906-2.097657-9.113281 1.65625-11.953124l17.289062-13.082032c-1.894531-4.09375-3.089844-8.515625-3.175781-13.125zm36.207031-75.433594 17.066406-17.066406c3.328125-3.335937 8.738282-3.335937 12.066406 0 3.335938 3.339844 3.335938 8.730469 0 12.066406l-17.066406 17.066407c-1.664062 1.664062-3.851562 2.5-6.035156 2.5s-4.367188-.835938-6.03125-2.5c-3.335938-3.335938-3.335938-8.726563 0-12.066407zm243.902344 76.457032c5.640625.785156 10.839844 3.132812 15.285156 6.488281l17.730469-13.414063c3.753906-2.816406 9.113281-2.09375 11.957031 1.652344 2.839844 3.757813 2.105469 9.105469-1.65625 11.957032l-17.296875 13.082031c1.902344 4.085937 3.097656 8.507812 3.191406 13.113281.210938 11.308594-4.027343 21.410156-11.9375 28.441406-6.570312 5.835938-14.917969 8.902344-23.960937 8.902344-1.878906 0-3.773438-.136719-5.703125-.402344l-28.636719-3.976562-.5625-28.910156c-.222656-11.304688 4.019531-21.410157 11.9375-28.441407s18.441406-10.058593 29.652344-8.492187zm-22.039063-50.855469 17.066407-17.066406c3.328124-3.335938 8.738281-3.335938 12.066406 0 3.335937 3.335937 3.335937 8.730469 0 12.066406l-17.066406 17.066406c-1.664063 1.664063-3.851563 2.5-6.035157 2.5-2.183593 0-4.367187-.835937-6.03125-2.5-3.335937-3.335937-3.335937-8.730469 0-12.066406zm63.265625 165.664063c-1.664062 1.664062-3.851562 2.5-6.035156 2.5s-4.367188-.835938-6.03125-2.5l-17.066406-17.066407c-3.335938-3.335937-3.335938-8.730469 0-12.066406 3.328125-3.335937 8.738281-3.335937 12.066406 0l17.066406 17.066406c3.328125 3.335938 3.328125 8.730469 0 12.066407zm-76.75 11.28125c9.824219 3.976562 17.203125 12.074218 20.777344 22.808593l9.140625 27.433594-25.660156 13.328125c-5.726563 2.976562-11.742188 4.464844-17.679688 4.464844-4.472656 0-8.890625-.855469-13.117187-2.5625-9.8125-3.976563-17.183594-12.074219-20.757813-22.800782-1.800781-5.410156-2-11.109374-.972656-16.570312l-19.894531-9.941406c-4.214844-2.109375-5.921875-7.234375-3.8125-11.453125 2.109375-4.214844 7.246094-5.910157 11.453125-3.8125l19.394531 9.695312c2.816406-3.515625 6.253906-6.546875 10.34375-8.671875 10.023438-5.214844 20.964844-5.90625 30.785156-1.917968zm-97.449218 61.984374c3.328124-3.335937 8.738281-3.335937 12.066406 0l17.066406 17.066407c3.335938 3.335937 3.335938 8.730469 0 12.066406-1.664062 1.664063-3.847656 2.5-6.03125 2.5-2.1875 0-4.371094-.835937-6.035156-2.5l-17.066406-17.066406c-3.335938-3.335938-3.335938-8.730469 0-12.066407zm80.332031-107.398437-17.066407 17.066406c-1.664062 1.664063-3.847656 2.5-6.03125 2.5-2.1875 0-4.371093-.835937-6.035156-2.5-3.335937-3.335937-3.335937-8.730469 0-12.066406l17.066406-17.066406c3.328126-3.335938 8.738282-3.335938 12.066407 0 3.328125 3.335937 3.328125 8.730469 0 12.066406zm-8.53125-59.734375c-1.664063 1.664062-3.851563 2.5-6.035157 2.5-2.183593 0-4.367187-.835938-6.03125-2.5l-17.066406-17.066406c-3.335937-3.335938-3.335937-8.726563 0-12.066406 3.328125-3.335938 8.738282-3.335938 12.066406 0l17.066407 17.066406c3.328125 3.335937 3.328125 8.730468 0 12.066406zm-33.800781-92.261719c-2.125 4.097657-5.121094 7.597657-8.636719 10.414063l9.660156 19.324218c2.109375 4.21875.390625 9.34375-3.816406 11.453126-1.226563.605468-2.523438.894531-3.8125.894531-3.121094 0-6.144531-1.722657-7.636719-4.71875l-9.941406-19.882813c-2.089844.394532-4.207032.667969-6.339844.667969-3.4375 0-6.902344-.53125-10.230469-1.628906-10.734375-3.578125-18.835937-10.957031-22.808593-20.78125-3.976563-9.820313-3.304688-20.75 1.910156-30.785157l13.328125-25.660156 27.425781 9.128906c10.742188 3.585938 18.839844 10.964844 22.816406 20.796876 3.96875 9.820312 3.296875 20.742187-1.917968 30.777343zm-60.066407 63.128907c3.335938 3.339843 3.335938 8.730468 0 12.066406-1.664062 1.664062-3.847656 2.5-6.03125 2.5-2.1875 0-4.371093-.835938-6.035156-2.5l-17.066406-17.066406c-3.335938-3.335938-3.335938-8.726563 0-12.066407 3.328125-3.335937 8.738281-3.335937 12.066406 0zm273.8125 78.027343c-12.746093 107.222657-96.464843 192.460938-203.601562 207.28125-35.054688 4.828125-69.636719 2.167969-102.925781-7.960937l6.59375-16.035156c20.457031 6.050781 41.378906 9.269531 62.601562 9.269531 10.207031 0 20.488281-.703125 30.796875-2.109375 103.046875-14.070313 183.222656-99.660156 190.628906-203.507813 4.609375-64.492187-18.855469-127.589843-64.371093-173.121093-45.519532-45.535157-108.621094-69.136719-173.105469-64.425782-103.867188 7.371094-189.480469 87.53125-203.558594 190.589844-4.40625 32.238281-1.828125 64.101562 7.472656 94.84375l-15.921875 6.664062c-10.386718-33.378906-13.261718-68.128906-8.53125-103.421874 14.367188-107.371094 99.402344-191.464844 206.792969-204.496094 73.957031-9.039063 146.394531 15.785156 198.683594 67.949218 52.292969 52.15625 77.234375 124.507813 68.445312 198.480469zm0 0"/><path d="m113.984375 408.28125c5.121094 2.09375 10.984375 1.632812 16.519531-1.246094l12.722656-6.601562-4.53125-13.601563c-1.96875-5.914062-5.871093-10.320312-10.988281-12.390625-2.125-.863281-4.371093-1.28125-6.675781-1.28125-3.242188 0-6.59375.851563-9.828125 2.535156-.8125.417969-1.5625.929688-2.277344 1.484376l14.90625 7.457031c4.214844 2.109375 5.921875 7.238281 3.8125 11.453125-1.492187 2.992187-4.503906 4.71875-7.644531 4.71875-1.28125 0-2.585938-.292969-3.804688-.898438l-13.832031-6.910156c.117188.988281.324219 1.972656.640625 2.917969 1.96875 5.898437 5.871094 10.292969 10.980469 12.363281zm0 0"/><path d="m313.710938 360.113281 14.910156 7.457031c4.214844 2.109376 5.921875 7.238282 3.8125 11.453126-1.492188 2.992187-4.503906 4.71875-7.644532 4.71875-1.28125 0-2.585937-.292969-3.804687-.898438l-13.832031-6.910156c.117187.988281.324218 1.972656.636718 2.917968 1.964844 5.914063 5.871094 10.308594 10.984376 12.382813 5.109374 2.082031 10.980468 1.628906 16.519531-1.246094l12.722656-6.605469-4.53125-13.601562c-1.972656-5.914062-5.871094-10.316406-10.992187-12.390625-2.121094-.863281-4.367188-1.28125-6.671876-1.28125-3.242187 0-6.59375.855469-9.828124 2.535156-.8125.394531-1.5625.90625-2.28125 1.46875zm0 0"/><path d="m125.007812 206.753906c3.757813-2.839844 9.105469-2.089844 11.957032 1.65625 2.839844 3.753906 2.097656 9.113282-1.65625 11.953125l-12.328125 9.328125c.9375.332032 1.910156.582032 2.890625.71875 6.167968.835938 11.851562-.691406 15.972656-4.363281 4.132812-3.667969 6.332031-9.113281 6.214844-15.351563l-.28125-14.34375-14.199219-1.960937c-6.179687-.855469-11.863281.691406-15.984375 4.359375s-6.332031 9.113281-6.210938 15.351562c.015626.90625.144532 1.808594.324219 2.695313zm0 0"/><path d="m253.167969 108.769531-13.601563-4.523437-6.613281 12.722656c-2.875 5.527344-3.308594 11.398438-1.246094 16.519531 2.074219 5.121094 6.46875 9.019531 12.390625 10.992188v-.011719c.949219.316406 1.929688.53125 2.917969.640625l-6.917969-13.832031c-2.109375-4.214844-.402344-9.34375 3.8125-11.449219 4.207032-2.101563 9.34375-.410156 11.453125 3.8125l7.457031 14.90625c.5625-.714844 1.074219-1.464844 1.492188-2.277344 2.867188-5.527343 3.3125-11.390625 1.246094-16.511719-2.074219-5.101562-6.476563-9.011718-12.390625-10.988281zm0 0"/><path d="m364.375 268.390625c6.1875.828125 11.84375-.691406 15.980469-4.363281 4.121093-3.667969 6.332031-9.113282 6.214843-15.347656-.019531-.90625-.136718-1.8125-.324218-2.707032l-13.304688 10.0625c-1.535156 1.160156-3.34375 1.722656-5.144531 1.722656-2.578125 0-5.136719-1.167968-6.808594-3.378906-2.84375-3.753906-2.101562-9.105468 1.652344-11.957031l12.339844-9.335937c-.9375-.332032-1.910157-.585938-2.902344-.722657-6.175781-.835937-11.84375.691407-15.972656 4.359375-4.121094 3.667969-6.332031 9.113282-6.210938 15.351563l.28125 14.34375zm0 0"/></svg>